<svg width="17" height="17" viewBox="0 0 17 17" fill="none" xmlns="http://www.w3.org/2000/svg">
<g clip-path="url(#clip0_2361_693)">
<path d="M17 1.94796C17 0.873398 16.1266 0 15.052 0H1.94796C0.873398 0 0 0.873398 0 1.94796V15.052C0 16.1266 0.873398 17 1.94796 17H15.052C16.1266 17 17 16.1266 17 15.052V1.94796Z" fill="#4CAF50"/>
<path d="M12.808 5.69716C13.0849 5.97407 13.0849 6.42166 12.808 6.6987L8.20374 11.3028C8.06561 11.4409 7.88429 11.5104 7.70297 11.5104C7.52165 11.5104 7.34033 11.4409 7.2022 11.3028L4.90016 9.00074C4.62312 8.72383 4.62312 8.27611 4.90016 7.9992C5.17707 7.72216 5.62466 7.72216 5.9017 7.9992L7.70297 9.80047L11.8064 5.69716C12.0833 5.42012 12.5309 5.42012 12.808 5.69716Z" fill="#FAFAFA"/>
</g>
<defs>
<clipPath id="clip0_2361_693">
<rect width="17" height="17" fill="white"/>
</clipPath>
</defs>
</svg>
